<svg width="29" height="29" viewBox="0 0 29 29" fill="none" xmlns="http://www.w3.org/2000/svg">
<path d="M22.958 16.3125H22.6559C22.5758 16.3125 22.499 16.2807 22.4423 16.224C22.3857 16.1674 22.3538 16.0905 22.3538 16.0104V7.85417C22.3538 5.77111 21.5263 3.77337 20.0534 2.30043C18.5805 0.82749 16.5827 0 14.4997 0C12.4166 0 10.4189 0.82749 8.94594 2.30043C7.473 3.77337 6.64551 5.77111 6.64551 7.85417V16.0104C6.64551 16.0905 6.61368 16.1674 6.55703 16.224C6.50038 16.2807 6.42354 16.3125 6.34342 16.3125H6.04134C5.72087 16.3125 5.41353 16.4398 5.18692 16.6664C4.96031 16.893 4.83301 17.2004 4.83301 17.5208C4.83301 17.8413 4.96031 18.1486 5.18692 18.3753C5.41353 18.6019 5.72087 18.7292 6.04134 18.7292H9.36426C9.44437 18.7292 9.52121 18.761 9.57786 18.8176C9.63451 18.8743 9.66634 18.9511 9.66634 19.0312V27.7917C9.66634 28.1121 9.79365 28.4195 10.0203 28.6461C10.2469 28.8727 10.5542 29 10.8747 29C11.1951 29 11.5025 28.8727 11.7291 28.6461C11.9557 28.4195 12.083 28.1121 12.083 27.7917V19.0312C12.083 18.9511 12.1148 18.8743 12.1715 18.8176C12.2281 18.761 12.305 18.7292 12.3851 18.7292H16.6143C16.6944 18.7292 16.7712 18.761 16.8279 18.8176C16.8845 18.8743 16.9163 18.9511 16.9163 19.0312V27.7917C16.9163 28.1121 17.0436 28.4195 17.2703 28.6461C17.4969 28.8727 17.8042 29 18.1247 29C18.4451 29 18.7525 28.8727 18.9791 28.6461C19.2057 28.4195 19.333 28.1121 19.333 27.7917V19.0312C19.333 18.9511 19.3648 18.8743 19.4215 18.8176C19.4781 18.761 19.555 18.7292 19.6351 18.7292H22.958C23.2785 18.7292 23.5858 18.6019 23.8124 18.3753C24.039 18.1486 24.1663 17.8413 24.1663 17.5208C24.1663 17.2004 24.039 16.893 23.8124 16.6664C23.5858 16.4398 23.2785 16.3125 22.958 16.3125ZM11.4426 9.0625C11.2825 8.89071 11.1954 8.66348 11.1995 8.4287C11.2036 8.19392 11.2988 7.96991 11.4648 7.80387C11.6308 7.63783 11.8548 7.54272 12.0896 7.53858C12.3244 7.53444 12.5516 7.62159 12.7234 7.78167L14.2822 9.34042C14.3104 9.36965 14.3441 9.39291 14.3815 9.40879C14.4189 9.42468 14.4591 9.43286 14.4997 9.43286C14.5403 9.43286 14.5805 9.42468 14.6178 9.40879C14.6552 9.39291 14.689 9.36965 14.7172 9.34042L16.2759 7.78167C16.4477 7.62159 16.6749 7.53444 16.9097 7.53858C17.1445 7.54272 17.3685 7.63783 17.5345 7.80387C17.7006 7.96991 17.7957 8.19392 17.7998 8.4287C17.804 8.66348 17.7168 8.89071 17.5568 9.0625L15.4905 11.165C15.4382 11.2209 15.4082 11.2939 15.4059 11.3704V16.0104C15.4059 16.0905 15.3741 16.1674 15.3174 16.224C15.2608 16.2807 15.184 16.3125 15.1038 16.3125H13.8955C13.8154 16.3125 13.7386 16.2807 13.6819 16.224C13.6252 16.1674 13.5934 16.0905 13.5934 16.0104V11.3704C13.5912 11.2939 13.5611 11.2209 13.5088 11.165L11.4426 9.0625Z" fill="#CC7E3E"/>
</svg>
