<svg width="30" height="30" viewBox="0 0 30 30" fill="none" xmlns="http://www.w3.org/2000/svg">
<path d="M15.7857 2C17.192 2.00375 17.9057 2.01125 18.522 2.02875L18.7645 2.0375C19.0445 2.0475 19.3207 2.06 19.6545 2.075C20.9845 2.1375 21.892 2.3475 22.6882 2.65625C23.5132 2.97375 24.2082 3.40375 24.9032 4.0975C25.5391 4.72217 26.0309 5.47809 26.3445 6.3125C26.6532 7.10875 26.8632 8.01625 26.9257 9.3475C26.9407 9.68 26.9532 9.95625 26.9632 10.2375L26.9707 10.48C26.9895 11.095 26.997 11.8088 26.9995 13.215L27.0007 14.1475V15.785C27.0038 16.6968 26.9942 17.6085 26.972 18.52L26.9645 18.7625C26.9545 19.0437 26.942 19.32 26.927 19.6525C26.8645 20.9837 26.652 21.89 26.3445 22.6875C26.0309 23.5219 25.5391 24.2778 24.9032 24.9025C24.2785 25.5384 23.5226 26.0302 22.6882 26.3438C21.892 26.6525 20.9845 26.8625 19.6545 26.925L18.7645 26.9625L18.522 26.97C17.9057 26.9875 17.192 26.9963 15.7857 26.9988L14.8532 27H13.217C12.3048 27.0032 11.3926 26.9936 10.4807 26.9712L10.2382 26.9638C9.94147 26.9525 9.6448 26.9396 9.34821 26.925C8.01821 26.8625 7.11071 26.6525 6.31321 26.3438C5.47925 26.0301 4.72376 25.5382 4.09946 24.9025C3.46314 24.278 2.97085 23.522 2.65696 22.6875C2.34821 21.8912 2.13821 20.9837 2.07571 19.6525L2.03821 18.7625L2.03196 18.52C2.00892 17.6085 1.9985 16.6968 2.00071 15.785V13.215C1.99725 12.3033 2.00642 11.3915 2.02821 10.48L2.03696 10.2375C2.04696 9.95625 2.05946 9.68 2.07446 9.3475C2.13696 8.01625 2.34696 7.11 2.65571 6.3125C2.97033 5.47775 3.46349 4.7218 4.10071 4.0975C4.72465 3.46194 5.4797 2.97009 6.31321 2.65625C7.11071 2.3475 8.01696 2.1375 9.34821 2.075C9.68071 2.06 9.95821 2.0475 10.2382 2.0375L10.4807 2.03C11.3922 2.00779 12.304 1.99821 13.2157 2.00125L15.7857 2ZM14.5007 8.25C12.8431 8.25 11.2534 8.90848 10.0813 10.0806C8.90919 11.2527 8.25071 12.8424 8.25071 14.5C8.25071 16.1576 8.90919 17.7473 10.0813 18.9194C11.2534 20.0915 12.8431 20.75 14.5007 20.75C16.1583 20.75 17.748 20.0915 18.9201 18.9194C20.0922 17.7473 20.7507 16.1576 20.7507 14.5C20.7507 12.8424 20.0922 11.2527 18.9201 10.0806C17.748 8.90848 16.1583 8.25 14.5007 8.25ZM14.5007 10.75C14.9932 10.7499 15.4808 10.8468 15.9358 11.0352C16.3908 11.2236 16.8043 11.4997 17.1525 11.8479C17.5008 12.1961 17.7771 12.6094 17.9656 13.0644C18.1542 13.5193 18.2513 14.0069 18.2513 14.4994C18.2514 14.9918 18.1545 15.4795 17.9661 15.9345C17.7777 16.3895 17.5016 16.8029 17.1534 17.1512C16.8053 17.4995 16.3919 17.7758 15.937 17.9643C15.482 18.1528 14.9944 18.2499 14.502 18.25C13.5074 18.25 12.5536 17.8549 11.8503 17.1517C11.147 16.4484 10.752 15.4946 10.752 14.5C10.752 13.5054 11.147 12.5516 11.8503 11.8483C12.5536 11.1451 13.5074 10.75 14.502 10.75M21.0645 6.375C20.6501 6.375 20.2526 6.53962 19.9596 6.83265C19.6666 7.12567 19.502 7.5231 19.502 7.9375C19.502 8.3519 19.6666 8.74933 19.9596 9.04235C20.2526 9.33538 20.6501 9.5 21.0645 9.5C21.4789 9.5 21.8763 9.33538 22.1693 9.04235C22.4623 8.74933 22.627 8.3519 22.627 7.9375C22.627 7.5231 22.4623 7.12567 22.1693 6.83265C21.8763 6.53962 21.4789 6.375 21.0645 6.375Z" fill="#FDFDFD"/>
</svg>
