<svg width="21" height="30" viewBox="0 0 21 30" fill="none" xmlns="http://www.w3.org/2000/svg">
<g clip-path="url(#clip0_404_250)">
<path d="M10.6631 19.4075C9.9737 19.4088 9.31293 19.6864 8.82537 20.1795C8.33781 20.6727 8.06316 21.3412 8.06152 22.0387V27.42C8.06152 28.1182 8.33561 28.7877 8.82349 29.2814C9.31138 29.7751 9.97308 30.0525 10.6631 30.0525C11.353 30.0525 12.0147 29.7751 12.5026 29.2814C12.9905 28.7877 13.2646 28.1182 13.2646 27.42V27.3662V27.3687V22.04C13.2633 21.3426 12.9891 20.6742 12.502 20.1809C12.015 19.6875 11.3547 19.4095 10.6655 19.4075H10.6631Z" fill="#CC7E3E"/>
<path d="M20.0896 3.28875H15.0829C14.4764 1.3675 12.7272 0 10.6618 0C8.59641 0 6.84847 1.3675 6.25059 3.255L6.24194 3.28875H1.30077C0.955781 3.28875 0.624926 3.42743 0.380985 3.67427C0.137044 3.92112 0 4.25591 0 4.605C0 4.95409 0.137044 5.28889 0.380985 5.53573C0.624926 5.78258 0.955781 5.92125 1.30077 5.92125H6.30741C6.63847 7.045 7.35741 7.965 8.30241 8.54125L8.32218 8.5525C4.77565 9.63625 2.23341 12.9025 2.21118 16.7738V23.6838C2.21633 24.2578 2.44388 24.8068 2.8449 25.2129C3.24592 25.6189 3.78838 25.8495 4.35565 25.855H6.11224V22.105C6.11224 20.8661 6.5986 19.678 7.46432 18.8019C8.33004 17.9259 9.50422 17.4338 10.7285 17.4338C11.9529 17.4338 13.127 17.9259 13.9927 18.8019C14.8585 19.678 15.3448 20.8661 15.3448 22.105V25.855H17.1002C17.6682 25.8511 18.2118 25.6211 18.6136 25.2148C19.0153 24.8085 19.2429 24.2585 19.2471 23.6838V16.8413C19.2463 14.996 18.6569 13.2004 17.5665 11.7214C16.4762 10.2424 14.9431 9.15902 13.1954 8.6325L13.1361 8.6175C14.1023 8.03457 14.8183 7.10721 15.1435 6.0175L15.1521 5.985H20.1588C20.5035 5.98401 20.8337 5.84502 21.0775 5.59839C21.3212 5.35176 21.4586 5.01754 21.4595 4.66875C21.4458 4.30707 21.2978 3.96394 21.045 3.70789C20.7921 3.45184 20.4532 3.30171 20.0958 3.2875H20.0933L20.0896 3.28875ZM10.6618 7.3C10.1473 7.3 9.64431 7.14561 9.21649 6.85635C8.78868 6.56708 8.45523 6.15594 8.25833 5.67492C8.06142 5.19389 8.0099 4.66458 8.11028 4.15393C8.21067 3.64327 8.45844 3.1742 8.82227 2.80604C9.1861 2.43788 9.64965 2.18716 10.1543 2.08558C10.6589 1.98401 11.182 2.03614 11.6574 2.23539C12.1328 2.43464 12.5391 2.77205 12.8249 3.20496C13.1108 3.63788 13.2634 4.14684 13.2634 4.6675L13.2646 4.7425C13.2646 6.155 12.1331 7.3 10.7372 7.3L10.6594 7.29875H10.6631L10.6618 7.3Z" fill="#CC7E3E"/>
</g>
<defs>
<clipPath id="clip0_404_250">
<rect width="21" height="30" fill="white"/>
</clipPath>
</defs>
</svg>
