<svg width="28" height="28" viewBox="0 0 28 28" fill="none" xmlns="http://www.w3.org/2000/svg">
<path d="M24.4997 3.5V18.0833C24.4997 19.1663 24.0695 20.2049 23.3037 20.9707C22.5379 21.7365 21.4993 22.1667 20.4163 22.1667C19.3334 22.1667 18.2948 21.7365 17.529 20.9707C16.7632 20.2049 16.333 19.1663 16.333 18.0833C16.333 17.0004 16.7632 15.9618 17.529 15.196C18.2948 14.4302 19.3334 14 20.4163 14C21.0463 14 21.6413 14.14 22.1663 14.3967V7.54833L10.4997 10.0333V20.4167C10.4997 21.4996 10.0695 22.5382 9.30369 23.304C8.53792 24.0698 7.49931 24.5 6.41634 24.5C5.33337 24.5 4.29476 24.0698 3.52899 23.304C2.76321 22.5382 2.33301 21.4996 2.33301 20.4167C2.33301 19.3337 2.76321 18.2951 3.52899 17.5293C4.29476 16.7635 5.33337 16.3333 6.41634 16.3333C7.04634 16.3333 7.64134 16.4733 8.16634 16.73V7L24.4997 3.5Z" fill="#CC7E3E"/>
</svg>
