<svg width="181" height="33" viewBox="0 0 181 33" fill="none" xmlns="http://www.w3.org/2000/svg">
<path d="M16.5 0L20.2045 11.4012H32.1924L22.494 18.4476L26.1985 29.8488L16.5 22.8024L6.80154 29.8488L10.506 18.4476L0.807568 11.4012H12.7955L16.5 0Z" fill="#FFB700"/>
<path d="M53.5244 0L57.2289 11.4012H69.2168L59.5184 18.4476L63.2229 29.8488L53.5244 22.8024L43.826 29.8488L47.5304 18.4476L37.832 11.4012H49.8199L53.5244 0Z" fill="#FFB700"/>
<path d="M126.768 0L130.473 11.4012H142.461L132.762 18.4476L136.467 29.8488L126.768 22.8024L117.07 29.8488L120.774 18.4476L111.076 11.4012H123.064L126.768 0Z" fill="#FFB700"/>
<path d="M88.939 0L92.6434 11.4012H104.631L94.9329 18.4476L98.6374 29.8488L88.939 22.8024L79.2405 29.8488L82.945 18.4476L73.2465 11.4012H85.2345L88.939 0Z" fill="#FFB700"/>
<path d="M163.793 0L167.497 11.4012H179.485L169.787 18.4476L173.491 29.8488L163.793 22.8024L154.094 29.8488L157.799 18.4476L148.1 11.4012H160.088L163.793 0Z" fill="#FFB700"/>
</svg>
