<svg width="181" height="33" viewBox="0 0 181 33" fill="none" xmlns="http://www.w3.org/2000/svg">
<path d="M16.5 0L20.2045 11.4012H32.1924L22.494 18.4476L26.1985 29.8488L16.5 22.8024L6.80154 29.8488L10.506 18.4476L0.807568 11.4012H12.7955L16.5 0Z" fill="#FFB700"/>
<path d="M53.5244 0L57.2289 11.4012H69.2168L59.5184 18.4476L63.2229 29.8488L53.5244 22.8024L43.826 29.8488L47.5304 18.4476L37.832 11.4012H49.8199L53.5244 0Z" fill="#FFB700"/>
<path d="M126.768 0L130.473 11.4012H142.461L132.762 18.4476L136.467 29.8488L126.768 22.8024L117.07 29.8488L120.774 18.4476L111.076 11.4012H123.064L126.768 0Z" fill="#FFB700"/>
<path d="M88.939 0L92.6435 11.4012H104.631L94.933 18.4476L98.6375 29.8488L88.939 22.8024L79.2406 29.8488L82.945 18.4476L73.2466 11.4012H85.2345L88.939 0Z" fill="#FFB700"/>
<path d="M167.021 11.5557L167.133 11.9014H177.946L169.493 18.043L169.199 18.2568L169.311 18.6025L172.54 28.5391L164.087 22.3975L163.793 22.1846L163.499 22.3975L155.045 28.5391L158.274 18.6025L158.386 18.2568L158.092 18.043L149.639 11.9014H160.452L160.564 11.5557L163.793 1.61816L167.021 11.5557Z" stroke="#FFB700"/>
</svg>
