<svg width="58" height="58" viewBox="0 0 58 58" fill="none" xmlns="http://www.w3.org/2000/svg">
<circle cx="29" cy="29" r="29" fill="#CC7E3E"/>
<path d="M42.2141 28.5406H34.7622C32.7964 28.5406 31.4474 27.0148 31.4474 25.1469V20.9113C31.4474 19.0434 32.7964 17.5176 34.7622 17.5176H38.8993C40.7237 17.5176 42.2141 19.0434 42.2141 20.9113V28.5406Z" stroke="white" stroke-width="1.5" stroke-linecap="round" stroke-linejoin="round"/>
<path d="M42.2141 28.541C42.2141 36.4992 40.7623 37.8145 36.3939 40.4716" stroke="white" stroke-width="1.5" stroke-linecap="round" stroke-linejoin="round"/>
<path d="M27.2717 28.5406H19.8198C17.8541 28.5406 16.505 27.0148 16.505 25.1469V20.9113C16.505 19.0434 17.8541 17.5176 19.8198 17.5176H23.9698C25.7942 17.5176 27.2846 19.0434 27.2846 20.9113V28.5406" stroke="white" stroke-width="1.5" stroke-linecap="round" stroke-linejoin="round"/>
<path d="M27.2717 28.541C27.2717 36.4992 25.8199 37.8145 21.4515 40.4716" stroke="white" stroke-width="1.5" stroke-linecap="round" stroke-linejoin="round"/>
</svg>
