<svg width="44" height="44" viewBox="0 0 44 44" fill="none" xmlns="http://www.w3.org/2000/svg">
<path d="M3.00505 42.4146C2.62529 42.4146 2.26446 42.2627 1.99863 41.9969C1.63785 41.6361 1.48604 41.1044 1.61896 40.6108L4.01148 31.6674C2.41648 28.7052 1.58094 25.3633 1.58094 21.9834C1.58094 10.7236 10.7332 1.57129 21.9931 1.57129C33.253 1.57129 42.4053 10.7236 42.4053 21.9834C42.4053 33.2434 33.253 42.3956 21.9931 42.3956C18.5562 42.3956 15.1955 41.5412 12.1953 39.9082L3.38483 42.3577C3.25192 42.3956 3.13797 42.4146 3.00505 42.4146ZM12.3852 36.965C12.632 36.965 12.8789 37.0412 13.1067 37.1551C15.7841 38.7311 18.86 39.5664 21.9931 39.5664C31.677 39.5664 39.5571 31.6864 39.5571 22.0024C39.5571 12.3186 31.677 4.43851 21.9931 4.43851C12.3092 4.43851 4.42916 12.3186 4.42916 22.0024C4.42916 25.0975 5.24563 28.1166 6.78366 30.7749C6.97355 31.0977 7.03055 31.4965 6.93561 31.8572L5.0368 38.9588L12.0244 37.022C12.1383 36.984 12.2712 36.965 12.3852 36.965Z" fill="white"/>
<path d="M27.1957 32.9397C26.0184 32.9397 24.8032 32.6738 23.531 32.1232C22.3347 31.6105 21.1385 30.9269 19.9802 30.0725C18.8409 29.237 17.7206 28.2876 16.6953 27.2622C15.6699 26.2179 14.7204 25.1166 13.885 23.9773C13.0305 22.781 12.3469 21.6038 11.8532 20.4455C11.3216 19.1923 11.0558 17.9581 11.0558 16.7808C11.0558 15.9453 11.2076 15.1478 11.4924 14.4073C11.7963 13.6288 12.29 12.9262 12.9356 12.3186C14.1508 11.1223 15.8978 10.6856 17.2839 11.3502C17.7586 11.5591 18.1573 11.9009 18.4611 12.3566L20.6638 15.4516C20.8916 15.7554 21.0625 16.0782 21.1954 16.401C21.3473 16.7808 21.4423 17.1606 21.4423 17.5213C21.4423 18.015 21.3093 18.5087 21.0435 18.9455C20.8726 19.2303 20.6258 19.5721 20.303 19.8949L20.0561 20.1607C20.1701 20.3126 20.303 20.5025 20.5118 20.7303C20.9106 21.186 21.3473 21.6797 21.822 22.1544C22.2967 22.6102 22.7714 23.0659 23.2461 23.4646C23.474 23.6545 23.6639 23.8064 23.8158 23.9013L24.0816 23.6355C24.4234 23.2937 24.7652 23.0279 25.107 22.857C25.7336 22.4583 26.702 22.3633 27.5564 22.7241C27.8602 22.838 28.164 23.0089 28.4868 23.2368L31.6579 25.4774C32.0946 25.7812 32.4364 26.1989 32.6642 26.6736C32.8541 27.1483 32.9301 27.566 32.9301 28.0028C32.9301 28.5724 32.7971 29.1231 32.5503 29.6547C32.3035 30.1484 32.0186 30.5852 31.6768 30.9839C31.0692 31.6485 30.3667 32.1422 29.6071 32.465C28.8476 32.7878 28.0311 32.9397 27.1957 32.9397ZM15.8977 13.9136C15.7838 13.9136 15.4041 13.9136 14.9294 14.3883C14.5686 14.7301 14.3217 15.0908 14.1508 15.4896C13.9799 15.8883 13.904 16.3441 13.904 16.7998C13.904 17.5973 14.0938 18.4518 14.4736 19.3632C14.8723 20.3126 15.461 21.319 16.1826 22.3253C16.9231 23.3317 17.7586 24.3381 18.689 25.2685C19.6194 26.1799 20.6068 27.0344 21.6321 27.7939C22.6195 28.5155 23.6259 29.0851 24.6323 29.5218C26.0754 30.1484 27.4045 30.3003 28.4868 29.8446C28.8666 29.6927 29.2084 29.4269 29.5502 29.0851C29.7211 28.8952 29.854 28.7053 29.9679 28.4585C30.0249 28.3256 30.0629 28.1737 30.0629 28.0408C30.0629 28.0028 30.0629 27.9458 30.0059 27.8319L26.8349 25.6293C26.702 25.5343 26.569 25.4584 26.4551 25.4204C26.3792 25.4584 26.2652 25.5153 26.0564 25.7242L25.3348 26.4458C24.7842 26.9964 23.9107 27.1483 23.2082 26.9015L22.8664 26.7496C22.4296 26.5217 21.936 26.1799 21.3853 25.7052C20.8536 25.2495 20.341 24.7748 19.7903 24.2431C19.2586 23.6925 18.7839 23.1798 18.3282 22.6481C17.8345 22.0595 17.4928 21.5848 17.2649 21.186L17.056 20.6924C16.9991 20.5025 16.98 20.2936 16.98 20.1037C16.98 19.5721 17.17 19.0974 17.5308 18.7176L18.2523 17.977C18.4611 17.7682 18.5371 17.6543 18.5751 17.5783C18.5181 17.4454 18.4421 17.3314 18.3472 17.1985L16.1255 14.0655L15.8977 13.9136Z" fill="white"/>
<g clip-path="url(#clip0_869_865)">
<ellipse cx="22.7586" cy="22.0001" rx="13.6552" ry="12.8966" fill="white"/>
<path d="M22.0018 3.66675C32.1273 3.66675 40.3351 11.8746 40.3351 22.0001C40.3351 32.1256 32.1273 40.3334 22.0018 40.3334C18.7619 40.339 15.5789 39.4816 12.7802 37.8492L3.67582 40.3334L6.15448 31.2254C4.52091 28.4258 3.66281 25.2414 3.66849 22.0001C3.66849 11.8746 11.8763 3.66675 22.0018 3.66675ZM15.7538 13.3834L15.3871 13.3981C15.1501 13.4144 14.9185 13.4767 14.7052 13.5814C14.5064 13.6942 14.3248 13.835 14.1662 13.9994C13.9462 14.2066 13.8215 14.3862 13.6877 14.5604C13.0095 15.4421 12.6444 16.5245 12.65 17.6367C12.6537 18.5351 12.8883 19.4096 13.255 20.2272C14.0048 21.8809 15.2387 23.6317 16.8666 25.2542C17.259 25.6447 17.644 26.0371 18.0583 26.4019C20.0813 28.1828 22.4918 29.4672 25.0983 30.1529L26.1397 30.3124C26.4788 30.3307 26.818 30.3051 27.159 30.2886C27.6928 30.2604 28.2141 30.1159 28.6861 29.8651C28.926 29.741 29.1603 29.6065 29.3883 29.4617C29.3883 29.4617 29.4659 29.4092 29.6175 29.2967C29.865 29.1134 30.0172 28.9832 30.2225 28.7687C30.3765 28.6099 30.5048 28.4253 30.6075 28.2151C30.7505 27.9162 30.8935 27.3461 30.9521 26.8712C30.9961 26.5082 30.9833 26.3102 30.9778 26.1874C30.9705 25.9912 30.8073 25.7877 30.6295 25.7016L29.5625 25.2231C29.5625 25.2231 27.9675 24.5282 26.9921 24.0846C26.8901 24.0401 26.7807 24.0147 26.6695 24.0094C26.544 23.9963 26.4172 24.0103 26.2977 24.0505C26.1781 24.0906 26.0686 24.156 25.9765 24.2422C25.9673 24.2386 25.8445 24.3431 24.519 25.9491C24.4429 26.0513 24.3381 26.1286 24.218 26.171C24.0978 26.2135 23.9677 26.2192 23.8443 26.1874C23.7248 26.1556 23.6078 26.1151 23.4942 26.0664C23.2668 25.9711 23.188 25.9344 23.0322 25.8684C21.9796 25.4099 21.0053 24.7895 20.1447 24.0296C19.9137 23.8279 19.6992 23.6079 19.4792 23.3952C18.7579 22.7045 18.1294 21.9231 17.6091 21.0706L17.501 20.8964C17.4245 20.7787 17.3617 20.6526 17.314 20.5206C17.2443 20.2511 17.4258 20.0347 17.4258 20.0347C17.4258 20.0347 17.8713 19.5471 18.0785 19.2831C18.2802 19.0264 18.4507 18.7771 18.5606 18.5992C18.777 18.2509 18.8448 17.8934 18.7312 17.6166C18.2178 16.3626 17.6874 15.1153 17.1398 13.8747C17.0317 13.6291 16.7108 13.4531 16.4193 13.4182C16.3203 13.406 16.2213 13.3962 16.1223 13.3889C15.8762 13.3748 15.6293 13.3772 15.3835 13.3962L15.7538 13.3834Z" fill="#25D366"/>
</g>
<defs>
<clipPath id="clip0_869_865">
<rect width="44" height="44" fill="white"/>
</clipPath>
</defs>
</svg>
