<svg width="28" height="22" viewBox="0 0 28 22" fill="none" xmlns="http://www.w3.org/2000/svg">
<path d="M11.9292 21.0618C11.3653 20.4363 11.0833 19.6706 11.0833 18.7647C11.0833 17.8588 11.3653 17.0931 11.9292 16.4676C12.4931 15.8422 13.1833 15.5294 14 15.5294C14.8167 15.5294 15.5069 15.8422 16.0708 16.4676C16.6347 17.0931 16.9167 17.8588 16.9167 18.7647C16.9167 19.6706 16.6347 20.4363 16.0708 21.0618C15.5069 21.6873 14.8167 22 14 22C13.1833 22 12.4931 21.6873 11.9292 21.0618ZM7.40833 14.6882L4.95833 11.9059C6.10556 10.6333 7.45228 9.62522 8.9985 8.88153C10.5447 8.13784 12.2119 7.76557 14 7.76471C15.7881 7.76384 17.4557 8.14129 19.0027 8.89706C20.5497 9.65282 21.896 10.6773 23.0417 11.9706L20.5917 14.6882C19.7361 13.7392 18.7444 12.9951 17.6167 12.4559C16.4889 11.9167 15.2833 11.6471 14 11.6471C12.7167 11.6471 11.5111 11.9167 10.3833 12.4559C9.25556 12.9951 8.26389 13.7392 7.40833 14.6882ZM2.45 9.18824L0 6.47059C1.78889 4.44314 3.87917 2.85784 6.27083 1.71471C8.6625 0.571568 11.2389 0 14 0C16.7611 0 19.3375 0.571568 21.7292 1.71471C24.1208 2.85784 26.2111 4.44314 28 6.47059L25.55 9.18824C24.0528 7.52745 22.3176 6.22816 20.3443 5.29035C18.3711 4.35255 16.2563 3.88322 14 3.88235C11.7437 3.88149 9.62928 4.35082 7.65683 5.29035C5.68439 6.22988 3.94878 7.52918 2.45 9.18824Z" fill="#CC7E3E"/>
</svg>
